# xmcd
#
# Track frame offsets:
#	150
#	101767
#	131366
#	154218
#	183841
#
# Disc length: 2928 seconds
#
# Revision: 1
# Processed by: cddbd v1.5.2PL0 Copyright (c) Steve Scherf et al.
# Submitted via: audiograbber 1.83.01
#
DISCID=380b6e05
DTITLE=Grateful Dead - 93-03-28 Knickerbocker Arena, Albany NY
DYEAR=1900
DGENRE=
TTITLE0=Space
TTITLE1=Way To Go Home
TTITLE2=Attics Of My Life
TTITLE3=Turn On Your Lovelight
TTITLE4=Knockin On Heaven's Door
EXTD=
EXTT0=
EXTT1=
EXTT2=
EXTT3=
EXTT4=
PLAYORDER=
